PathFileType  4	(X/Y/Z) /Users/mattheworga/Documents/Git/DLSU/thesis/database/S00_Demo-Batch/P00_Demo-man/T00_Trial/pose-3d
DataRate	CameraRate	NumFrames	NumMarkers	Units	OrigDataRate	OrigDataStartFrame	OrigNumFrames
60.0	60.0	11	22	m	60.0	20	100
Frame#	Time	Hip			RHip			RKnee			RAnkle			RBigToe			RSmallToe			RHeel			LHip			LKnee			LAnkle			LBigToe			LSmallToe			LHeel			Neck			Head			Nose			RShoulder			RElbow			RWrist			LShoulder			LElbow			LWrist			
		X1	Y1	Z1	X2	Y2	Z2	X3	Y3	Z3	X4	Y4	Z4	X5	Y5	Z5	X6	Y6	Z6	X7	Y7	Z7	X8	Y8	Z8	X9	Y9	Z9	X10	Y10	Z10	X11	Y11	Z11	X12	Y12	Z12	X13	Y13	Z13	X14	Y14	Z14	X15	Y15	Z15	X16	Y16	Z16	X17	Y17	Z17	X18	Y18	Z18	X19	Y19	Z19	X20	Y20	Z20	X21	Y21	Z21	X22	Y22	Z22	

21	0.3333333	-0.0602784	0.9190573	-1.2113439	-0.1465981	0.9347921	-1.2484557	-0.2649208	0.5472099	-1.1726592	-0.1181259	0.2493791	-1.3919785	-0.1492680	0.1021147	-1.3426246	-0.1574498	0.1104025	-1.4091119	-0.1258585	0.2534296	-1.3857649	0.0109730	0.8875863	-1.2088957	-0.0515551	0.5203126	-1.0368226	-0.0147846	0.1742726	-1.1300794	-0.0453022	0.0966895	-0.9686813	0.0177886	0.0808385	-1.0254976	0.0024987	0.1134835	-1.1861918	0.1365878	1.4366976	-1.2095301	0.2086288	1.6610932	-1.0257767	0.1433085	1.5050358	-1.0470801	-0.0378719	1.4431598	-1.2697692	-0.2734256	1.3439044	-1.3081657	-0.3959910	1.3669560	-1.0796060	0.2806044	1.3027776	-1.2187522	0.3336249	1.0168700	-1.2272068	0.3447169	0.7625949	-1.1717320
22	0.3500000	-0.0622629	0.9185449	-1.2065864	-0.1497510	0.9376369	-1.2426323	-0.2917296	0.5564249	-1.1535364	-0.1484975	0.2467337	-1.3645338	-0.1871095	0.1043711	-1.3097284	-0.1942418	0.1142399	-1.3765585	-0.1491899	0.2405408	-1.3678430	0.0087215	0.8867096	-1.2017594	-0.0530464	0.5138246	-1.0382173	-0.0153705	0.1691315	-1.1373140	-0.0425242	0.0956310	-0.9699970	0.0205364	0.0793814	-1.0273297	0.0023303	0.1138983	-1.1863629	0.1441133	1.4313754	-1.2007288	0.2186846	1.6537361	-1.0146586	0.1490966	1.4997370	-1.0322673	-0.0316661	1.4416880	-1.2753308	-0.2663663	1.3528724	-1.3008536	-0.3876272	1.3907089	-1.0798362	0.2849452	1.2950421	-1.2109812	0.3345731	1.0064841	-1.2106532	0.3418504	0.7536486	-1.1568197
23	0.3666667	-0.0636592	0.9183911	-1.2016682	-0.1529577	0.9407475	-1.2362222	-0.3154677	0.5655624	-1.1353913	-0.1785856	0.2382195	-1.3455607	-0.2275669	0.1068667	-1.2737389	-0.2368066	0.1195842	-1.3414082	-0.1706279	0.2197420	-1.3623949	0.0075746	0.8865077	-1.1938373	-0.0548503	0.5085567	-1.0378992	-0.0160997	0.1635537	-1.1441924	-0.0403626	0.0936774	-0.9727128	0.0210726	0.0783895	-1.0269228	0.0014678	0.1117832	-1.1888671	0.1517658	1.4261752	-1.1910436	0.2286482	1.6465604	-1.0041913	0.1553569	1.4941245	-1.0185125	-0.0254091	1.4397102	-1.2794568	-0.2594424	1.3613760	-1.2946353	-0.3792178	1.4108464	-1.0813527	0.2897098	1.2872698	-1.2014130	0.3350641	0.9974786	-1.1953697	0.3388568	0.7457319	-1.1419969
24	0.3833333	-0.0647517	0.9186329	-1.1961994	-0.1561949	0.9438205	-1.2289767	-0.3363495	0.5744575	-1.1186936	-0.2085480	0.2265707	-1.3320858	-0.2701155	0.1103661	-1.2358208	-0.2841304	0.1267132	-1.3049509	-0.1925719	0.1961296	-1.3623568	0.0081150	0.8869484	-1.1835731	-0.0566820	0.5045306	-1.0352916	-0.0167223	0.1589610	-1.1491819	-0.0396499	0.0914736	-0.9754521	0.0197595	0.0776787	-1.0249244	0.0001918	0.1088871	-1.1919457	0.1594623	1.4210947	-1.1811460	0.2387962	1.6395068	-0.9943436	0.1624691	1.4883193	-1.0063932	-0.0188400	1.4374702	-1.2800857	-0.2530573	1.3693344	-1.2895290	-0.3704817	1.4280192	-1.0813597	0.2945091	1.2795654	-1.1911026	0.3354239	0.9899984	-1.1817421	0.3359083	0.7387558	-1.1274773
25	0.4000000	-0.0658813	0.9192277	-1.1898983	-0.1595067	0.9466167	-1.2204306	-0.3548694	0.5830905	-1.1035543	-0.2397668	0.2159372	-1.3192107	-0.3141344	0.1151227	-1.1976889	-0.3337715	0.1348785	-1.2689258	-0.2177023	0.1757889	-1.3597287	0.0100915	0.8874623	-1.1710603	-0.0582283	0.5013075	-1.0308283	-0.0170249	0.1559312	-1.1519921	-0.0404197	0.0895522	-0.9773417	0.0174251	0.0771491	-1.0222627	-0.0010475	0.1068423	-1.1942829	0.1669914	1.4160303	-1.1713936	0.2493447	1.6323967	-0.9851899	0.1708851	1.4822373	-0.9957021	-0.0121790	1.4351636	-1.2768548	-0.2476173	1.3766401	-1.2852658	-0.3614457	1.4430528	-1.0784009	0.2990067	1.2719699	-1.1812648	0.3358668	0.9837869	-1.1698509	0.3331234	0.7325340	-1.1133531
26	0.4166667	-0.0673385	0.9199809	-1.1825570	-0.1630786	0.9489807	-1.2100534	-0.3715088	0.5915271	-1.0897244	-0.2737292	0.2096897	-1.3033331	-0.3582284	0.1206065	-1.1614732	-0.3824681	0.1426025	-1.2352362	-0.2472651	0.1626157	-1.3501855	0.0120646	0.8869715	-1.1589553	-0.0593610	0.4984902	-1.0251869	-0.0169230	0.1541281	-1.1532474	-0.0419988	0.0880901	-0.9783518	0.0151603	0.0767678	-1.0200986	-0.0020066	0.1060187	-1.1958114	0.1741430	1.4108223	-1.1619006	0.2602168	1.6250994	-0.9769934	0.1805789	1.4757525	-0.9858629	-0.0058054	1.4328944	-1.2704627	-0.2432244	1.3831601	-1.2812386	-0.3522802	1.4567117	-1.0727061	0.3032702	1.2643873	-1.1721340	0.3364822	0.9782779	-1.1594742	0.3305305	0.7268092	-1.0996728
27	0.4333333	-0.0693230	0.9206283	-1.1740844	-0.1671333	0.9508666	-1.1975779	-0.3866385	0.5998390	-1.0768329	-0.3111538	0.2094723	-1.2835271	-0.4008123	0.1261604	-1.1290265	-0.4276965	0.1488540	-1.2053134	-0.2808338	0.1572682	-1.3338701	0.0125684	0.8846418	-1.1497735	-0.0601598	0.4958673	-1.0188493	-0.0165413	0.1528580	-1.1535915	-0.0433298	0.0869916	-0.9790828	0.0138599	0.0764893	-1.0194094	-0.0027992	0.1058784	-1.1968252	0.1808124	1.4053340	-1.1527476	0.2709440	1.6177025	-0.9701060	0.1907178	1.4689133	-0.9762158	0.0001211	1.4306505	-1.2619318	-0.2394639	1.3887334	-1.2765933	-0.3432092	1.4696229	-1.0656768	0.3074075	1.2567379	-1.1635938	0.3372994	0.9727983	-1.1502239	0.3280979	0.7212379	-1.0864754
28	0.4500000	-0.0719138	0.9210264	-1.1645897	-0.1716567	0.9523566	-1.1834990	-0.4004256	0.6081055	-1.0646339	-0.3520046	0.2155763	-1.2604041	-0.4410004	0.1317557	-1.1011421	-0.4686224	0.1538767	-1.1794564	-0.3174802	0.1583383	-1.3129781	0.0109982	0.8805044	-1.1439530	-0.0609103	0.4934107	-1.0120081	-0.0161862	0.1516122	-1.1533193	-0.0434614	0.0860115	-0.9802890	0.0136611	0.0762336	-1.0203694	-0.0037047	0.1057179	-1.1973468	0.1869782	1.3995545	-1.1440636	0.2809100	1.6104654	-0.9649105	0.2001518	1.4618892	-0.9663759	0.0056986	1.4283675	-1.2522700	-0.2356716	1.3932882	-1.2705483	-0.3345760	1.4822224	-1.0590452	0.3114019	1.2490297	-1.1556114	0.3383220	0.9668222	-1.1417130	0.3258033	0.7154635	-1.0738006
29	0.4666667	-0.0750330	0.9212121	-1.1543602	-0.1762559	0.9535564	-1.1690724	-0.4128304	0.6164094	-1.0529958	-0.3952996	0.2270681	-1.2351323	-0.4787354	0.1381765	-1.0774144	-0.5058190	0.1590144	-1.1568620	-0.3565319	0.1640562	-1.2896431	0.0075545	0.8754212	-1.1401113	-0.0618991	0.4912058	-1.0047756	-0.0161683	0.1502660	-1.1525444	-0.0420687	0.0848617	-0.9823608	0.0141619	0.0759209	-1.0224517	-0.0048936	0.1051061	-1.1972859	0.1926622	1.3936148	-1.1360182	0.2897594	1.6036219	-0.9615761	0.2082597	1.4547659	-0.9565121	0.0110578	1.4259970	-1.2423896	-0.2314405	1.3970022	-1.2628314	-0.3268590	1.4947547	-1.0540390	0.3151506	1.2413072	-1.1482976	0.3395188	0.9601501	-1.1336958	0.3237002	0.7092395	-1.0617472
30	0.4833333	-0.0784759	0.9212911	-1.1438423	-0.1806381	0.9545350	-1.1551837	-0.4238102	0.6247530	-1.0418428	-0.4387344	0.2417397	-1.2092693	-0.5143824	0.1466454	-1.0567580	-0.5404014	0.1659708	-1.1362511	-0.3974188	0.1734024	-1.2650960	0.0028767	0.8704944	-1.1363089	-0.0631653	0.4893393	-0.9974357	-0.0166072	0.1490279	-1.1514760	-0.0395324	0.0834265	-0.9851179	0.0150426	0.0755528	-1.0250048	-0.0062948	0.1040958	-1.1968351	0.1979523	1.3876798	-1.1287725	0.2976627	1.5972400	-0.9597311	0.2153427	1.4474507	-0.9473123	0.0162258	1.4235162	-1.2330046	-0.2267906	1.4002918	-1.2539468	-0.3204244	1.5072276	-1.0508782	0.3185539	1.2336155	-1.1418514	0.3407849	0.9528834	-1.1260938	0.3219421	0.7025109	-1.0505236
31	0.5000000	-0.0819912	0.9213596	-1.1336197	-0.1850288	0.9554153	-1.1417376	-0.4335327	0.6329930	-1.0312796	-0.4793652	0.2568996	-1.1844317	-0.5481572	0.1579563	-1.0379473	-0.5731168	0.1758389	-1.1164372	-0.4392582	0.1861178	-1.2398520	-0.0022544	0.8664290	-1.1313630	-0.0644495	0.4878327	-0.9904277	-0.0174171	0.1482591	-1.1504685	-0.0365984	0.0819281	-0.9880030	0.0161065	0.0752681	-1.0274312	-0.0076727	0.1031612	-1.1965231	0.2029910	1.3818601	-1.1223701	0.3052414	1.5912132	-0.9586813	0.2224249	1.4397261	-0.9399583	0.0211818	1.4209668	-1.2243715	-0.2218858	1.4035974	-1.2448353	-0.3151332	1.5193209	-1.0488583	0.3215713	1.2260117	-1.1363641	0.3419486	0.9452571	-1.1189091	0.3207402	0.6954122	-1.0404383
